<?xml version="1.0" encoding="UTF-8" standalone="no" ?>
<!DOCTYPE svg PUBLIC "-//W3C//DTD SVG 1.1//EN" "http://www.w3.org/Graphics/SVG/1.1/DTD/svg11.dtd">
<svg xmlns="http://www.w3.org/2000/svg" xmlns:xlink="http://www.w3.org/1999/xlink" version="1.1" width="813" height="813" viewBox="0 0 1080 1080" xml:space="preserve">
<desc>Created with Fabric.js 6.5.3</desc>
<defs>
</defs>
<g transform="matrix(67.7051 0 0 67.7051 479.9411 524.8227)"  >
<g style=""   >
		<g transform="matrix(1 0 0 1 0 0)"  >
<rect style="stroke: rgb(0,0,0); stroke-width: 1; stroke-dasharray: none; stroke-linecap: butt; stroke-dashoffset: 0; stroke-linejoin: miter; stroke-miterlimit: 4; fill: none; fill-rule: nonzero; opacity: 1;"  x="-5.5" y="-4.5" rx="0.5" ry="0.5" width="11" height="9" />
</g>
		<g transform="matrix(1 0 0 1 0 0)"  >
<path style="stroke: rgb(0,0,0); stroke-width: 1; stroke-dasharray: none; stroke-linecap: round; stroke-dashoffset: 0; stroke-linejoin: miter; stroke-miterlimit: 4; fill: none; fill-rule: nonzero; opacity: 1;"  transform=" translate(-6, -6)" d="M 5.5 8.5 L 9.5 8.5 M 2.5 3.5 L 4.6 5.6 C 4.7906 5.7944 4.7906 6.1056 4.6 6.3 L 2.5 8.5" stroke-linecap="round" />
</g>
</g>
</g>
<g transform="matrix(0.8249 0 0 0.8249 616.7636 449.3835)"  >
<g style=""   >
		<g transform="matrix(1 0 0 1 -24.8886 -0.1049)" id="Layer_1"  >
<path style="stroke: none; stroke-width: 1; stroke-dasharray: none; stroke-linecap: butt; stroke-dashoffset: 0; stroke-linejoin: miter; stroke-miterlimit: 4; fill: rgb(0,0,0); fill-rule: nonzero; opacity: 1;"  transform=" translate(-231.1114, -255.8951)" d="M 260.12 277 C 260.3618 276.8106 260.5861 276.5997 260.79 276.37 C 261.7638 275.2659 262.2977 273.8422 262.29 272.37 C 262.2784 270.9687 261.8464 269.6031 261.05 268.45 C 260.1553 267.182 258.8353 266.2771 257.33 265.9 L 257.06 265.85 L 250.17 244.79 Q 247.82 237.79 245.96 231.99 Q 244.04 225.99 242.23 221.84 C 241.206 219.343 239.8614 216.9899 238.23 214.84 C 235.95 211.98 233.53 211.38 231.9 211.38 C 229.6 211.38 227.49 212.56 225.61 214.89 C 223.9588 217.0698 222.5818 219.4442 221.51 221.96 C 220.23 224.78 218.93 228.12 217.57 231.96 C 216.21 235.8 214.89 239.89 213.44 244.42 L 197.78 293 C 197.6713 293.4993 197.6177 294.009 197.62 294.52 C 197.5764 296.2869 198.3652 297.9718 199.75 299.07 C 200.8962 299.951 202.3044 300.4228 203.75 300.41 C 205.5 300.41 208.06 299.75 210.28 296.66 C 210.496 296.3565 210.6583 296.0183 210.76 295.66 L 216.09 278.24 L 246.89 278.24 L 251.54 296.31 C 252.6139 298.67 254.9983 300.1558 257.59 300.08 C 261.52 300.08 264.2 297.72 264.59 293.92 C 264.6269 293.5172 264.593 293.1111 264.49 292.72 Z M 234.19 240.61 L 240.74 260.08 C 241.27 261.77 241.74 263.39 242.29 264.96 L 220.7 264.96 L 231.53 232.86 Q 232.7 236.37 234.19 240.59 Z" stroke-linecap="round" />
</g>
		<g transform="matrix(1 0 0 1 34.5429 0.3496)" id="Layer_1"  >
<path style="stroke: none; stroke-width: 1; stroke-dasharray: none; stroke-linecap: butt; stroke-dashoffset: 0; stroke-linejoin: miter; stroke-miterlimit: 4; fill: rgb(0,0,0); fill-rule: nonzero; opacity: 1;"  transform=" translate(-290.5429, -256.3496)" d="M 298.26 271.26 C 298.43 266.82 298.59 262.09 298.75 257.14 L 299.53 230.44 C 299.58 228.44 299.62 226.69 299.65 225.21 C 300.12 225.21 300.65 225.21 301.19 225.21 C 303.57 225.31 305.63 225.42 307.39 225.55 C 311.05 225.8 313.83 223.63 314.39 219.34 C 314.4434 216.0269 312.0601 213.1753 308.79 212.64 C 307.79 212.5 306.32 212.35 304.25 212.17 C 302.18 211.99 294.46 212.08 281.85 212.41 C 275.01 212.22 268.56 212.69 267.35 217.41 C 266.35 221.52 267.77 223.55 269.16 224.53 C 270.6192 225.581 272.4319 226.019 274.21 225.75 C 275.329 225.622 276.4538 225.5519 277.58 225.54 L 284.19 225.44 L 286.52 225.44 C 286.52 226.02 286.52 226.64 286.52 227.32 C 286.52 229.58 286.43 232.21 286.32 235.24 L 285.32 262.96 Q 284.81 275.42 284.64 281.28 Q 284.52 284.67 284.4 287.21 C 278.6 287.11 274.87 287.07 273.18 287.07 C 271.869 287.0579 270.5771 287.3852 269.43 288.02 C 268.18 288.71 266.7 290.2 266.7 293.3 C 266.64 294.7 267.03 298.14 272.01 299.84 C 272.331 299.9564 272.6686 300.0206 273.01 300.03 L 307.52 300.61 C 309.1627 300.7052 310.7743 300.1339 311.9902 299.0253 C 313.2061 297.9166 313.9235 296.3645 313.98 294.72 C 314.2079 292.9665 313.6932 291.1975 312.56 289.84 C 311.136 288.3481 309.152 287.5212 307.09 287.56 L 297.5 287.42 C 297.62 286.16 297.71 284.73 297.79 283.14 C 297.94 279.67 298.11 275.7 298.26 271.26 Z" stroke-linecap="round" />
</g>
		<g transform="matrix(1 0 0 1 0 0)" id="Layer_1"  >
<path style="stroke: none; stroke-width: 1; stroke-dasharray: none; stroke-linecap: butt; stroke-dashoffset: 0; stroke-linejoin: miter; stroke-miterlimit: 4; fill: rgb(0,0,0); fill-rule: nonzero; opacity: 1;"  transform=" translate(-256, -256)" d="M 431.89 312.77 L 431.89 290.07 C 431.8735 275.3513 419.9487 263.422 405.23 263.4 L 355.37 263.4 L 355.37 248.59 L 405.23 248.59 C 419.9471 248.5735 431.8735 236.6471 431.89 221.93 L 431.89 199.23 C 446.5739 195.8291 456.3697 181.9529 454.6582 166.9778 C 452.9467 152.0027 440.2726 140.6946 425.2 140.6946 C 410.1274 140.6946 397.4533 152.0027 395.7418 166.9778 C 394.0303 181.9529 403.8261 195.8291 418.51 199.23 L 418.51 221.93 C 418.5045 229.2637 412.5637 235.209 405.23 235.22 L 355.37 235.22 L 355.37 180.66 C 355.337 167.4189 344.6111 156.693 331.37 156.66 L 276.77 156.66 L 276.77 106.78 C 276.7755 99.4424 282.7224 93.4955 290.06 93.49 L 312.78 93.49 C 316.1809 108.1739 330.0571 117.9697 345.0322 116.2582 C 360.0073 114.5467 371.3154 101.8726 371.3154 86.8 C 371.3154 71.7274 360.0073 59.0533 345.0322 57.3418 C 330.0571 55.6303 316.1809 65.4261 312.78 80.11 L 290.06 80.11 C 275.3413 80.132 263.4165 92.0613 263.4 106.78 L 263.4 156.63 L 248.6 156.63 L 248.6 106.78 C 248.5835 92.0574 236.6526 80.1265 221.93 80.11 L 199.22 80.11 C 195.8191 65.4261 181.9429 55.6303 166.9678 57.3418 C 151.9927 59.0533 140.6846 71.7274 140.6846 86.8 C 140.6846 101.8726 151.9927 114.5467 166.9678 116.2582 C 181.9429 117.9697 195.8191 108.1739 199.22 93.49 L 221.93 93.49 C 229.2676 93.4955 235.2145 99.4424 235.22 106.78 L 235.22 156.63 L 180.66 156.63 C 167.4189 156.663 156.693 167.3889 156.66 180.63 L 156.66 235.19 L 106.77 235.19 C 99.434 235.1845 93.49 229.236 93.49 221.9 L 93.49 199.2 C 108.1739 195.7991 117.9697 181.9229 116.2582 166.9478 C 114.5467 151.9727 101.8726 140.6646 86.8 140.6646 C 71.7274 140.6646 59.0533 151.9727 57.3418 166.9478 C 55.6303 181.9229 65.4261 195.7991 80.11 199.2 L 80.11 221.9 C 80.1265 236.6171 92.0529 248.5435 106.77 248.56 L 156.63 248.56 L 156.63 263.4 L 106.77 263.4 C 92.0513 263.422 80.1265 275.3513 80.11 290.07 L 80.11 312.77 C 65.4261 316.1709 55.6303 330.0471 57.3418 345.0222 C 59.0533 359.9973 71.7274 371.3054 86.8 371.3054 C 101.8726 371.3054 114.5467 359.9973 116.2582 345.0222 C 117.9697 330.0471 108.1739 316.1709 93.49 312.77 L 93.49 290.07 C 93.49 282.734 99.434 276.7855 106.77 276.78 L 156.63 276.78 L 156.63 331.34 C 156.663 344.5811 167.3889 355.307 180.63 355.34 L 235.19 355.34 L 235.19 405.19 C 235.1845 412.5276 229.2376 418.4745 221.9 418.48 L 199.22 418.48 C 195.8191 403.7961 181.9429 394.0003 166.9678 395.7118 C 151.9927 397.4233 140.6846 410.0974 140.6846 425.17 C 140.6846 440.2426 151.9927 452.9167 166.9678 454.6282 C 181.9429 456.3397 195.8191 446.5439 199.22 431.86 L 221.93 431.86 C 236.6526 431.8435 248.5835 419.9126 248.6 405.19 L 248.6 355.37 L 263.4 355.37 L 263.4 405.22 C 263.4165 419.9387 275.3413 431.868 290.06 431.89 L 312.78 431.89 C 316.1809 446.5739 330.0571 456.3697 345.0322 454.6582 C 360.0073 452.9467 371.3154 440.2726 371.3154 425.2 C 371.3154 410.1274 360.0073 397.4533 345.0322 395.7418 C 330.0571 394.0303 316.1809 403.8261 312.78 418.51 L 290.06 418.51 C 282.7224 418.5045 276.7755 412.5576 276.77 405.22 L 276.77 355.37 L 331.34 355.37 C 344.5811 355.337 355.307 344.6111 355.34 331.37 L 355.34 276.78 L 405.2 276.78 C 412.5337 276.791 418.4745 282.7363 418.48 290.07 L 418.48 312.77 C 403.7961 316.1709 394.0003 330.0471 395.7118 345.0222 C 397.4233 359.9973 410.0974 371.3054 425.17 371.3054 C 440.2426 371.3054 452.9167 359.9973 454.6282 345.0222 C 456.3397 330.0471 446.5439 316.1709 431.86 312.77 Z M 408.89 170.4 C 408.89 163.8154 412.8565 157.8791 418.9399 155.3592 C 425.0233 152.8394 432.0257 154.2323 436.6817 158.8883 C 441.3377 163.5443 442.7306 170.5467 440.2108 176.6301 C 437.6909 182.7135 431.7546 186.68 425.17 186.68 C 416.1951 186.6525 408.931 179.3749 408.92 170.4 Z M 341.6 70.53 C 348.1865 70.526 354.1264 74.491 356.6488 80.5753 C 359.1712 86.6596 357.779 93.6644 353.1217 98.3217 C 348.4644 102.979 341.4596 104.3712 335.3753 101.8488 C 329.291 99.3264 325.326 93.3865 325.33 86.8 C 325.341 77.8189 332.6189 70.541 341.6 70.53 Z M 170.4 103.08 C 163.8144 103.084 157.8751 99.1201 155.3521 93.037 C 152.8291 86.9539 154.2195 79.95 158.8748 75.2918 C 163.53 70.6337 170.5331 69.239 176.6178 71.7583 C 182.7024 74.2775 186.67 80.2144 186.67 86.8 C 186.659 95.7827 179.3827 103.0635 170.4 103.08 Z M 70.53 170.4 C 70.53 163.8144 74.4976 157.8775 80.5822 155.3583 C 86.6669 152.839 93.67 154.2337 98.3252 158.8918 C 102.9805 163.55 104.3709 170.5539 101.8479 176.637 C 99.3249 182.7201 93.3856 186.684 86.8 186.68 C 77.815 186.669 70.5355 179.385 70.53 170.4 Z M 103.08 341.6 C 103.08 350.5912 95.7912 357.88 86.8 357.88 C 77.8088 357.88 70.52 350.5912 70.52 341.6 C 70.52 332.6088 77.8088 325.32 86.8 325.32 C 95.7866 325.331 103.069 332.6134 103.08 341.6 Z M 170.4 441.47 C 163.8135 441.474 157.8736 437.509 155.3512 431.4247 C 152.8288 425.3404 154.221 418.3356 158.8783 413.6783 C 163.5356 409.021 170.5404 407.6288 176.6247 410.1512 C 182.709 412.6736 186.674 418.6135 186.67 425.2 C 186.659 434.1811 179.3811 441.459 170.4 441.47 Z M 341.6 408.92 C 348.1856 408.916 354.1249 412.8799 356.6479 418.963 C 359.1709 425.0461 357.7805 432.05 353.1252 436.7082 C 348.47 441.3663 341.4669 442.761 335.3822 440.2417 C 329.2976 437.7225 325.33 431.7856 325.33 425.2 C 325.341 416.2173 332.6173 408.9365 341.6 408.92 Z M 341.99 331.34 C 341.9845 337.2212 337.2212 341.989 331.34 342 L 180.66 342 C 174.7749 341.9945 170.0055 337.2251 170 331.34 L 170 180.66 C 170.0055 174.7749 174.7749 170.0055 180.66 170 L 331.34 170 C 337.2251 170.0055 341.9945 174.7749 342 180.66 Z M 425.2 357.87 C 418.6135 357.874 412.6736 353.909 410.1512 347.8247 C 407.6288 341.7404 409.021 334.7356 413.6783 330.0783 C 418.3356 325.421 425.3404 324.0288 431.4247 326.5512 C 437.509 329.0736 441.474 335.0135 441.47 341.6 C 441.4535 350.5788 434.1788 357.8535 425.2 357.87 Z" stroke-linecap="round" />
</g>
</g>
</g>
</svg>